# Blender v3.6.0 OBJ File: ''
# www.blender.org
mtllib collision.mtl
o 立方体
v -1.000000 -1.000000 1.000000
v -1.000000 1.000000 1.000000
v -1.000000 1.000000 -1.000000
v -1.000000 -1.000000 -1.000000
v 1.000000 1.000000 -1.000000
v 1.000000 -1.000000 -1.000000
v 1.000000 1.000000 1.000000
v 1.000000 -1.000000 1.000000
vt 0.336383 0.007990
vt 0.667870 0.007990
vt 0.667870 0.254794
vt 0.336383 0.254794
vt 0.667870 0.500000
vt 0.336383 0.500000
vt 0.667870 0.748402
vt 0.336383 0.748402
vt 0.667870 0.996804
vt 0.336383 0.996804
vt 0.009150 0.500000
vt 0.009150 0.750000
vt 0.995103 0.500000
vt 0.995103 0.750000
vn -1.0000 -0.0000 0.0000
vn 0.0000 -0.0000 -1.0000
vn 1.0000 0.0000 0.0000
vn 0.0000 0.0000 1.0000
vn 0.0000 -1.0000 0.0000
vn 0.0000 1.0000 -0.0000
usemtl マテリアル
s 1
f 1/1/1 2/2/1 3/3/1 4/4/1
f 4/4/2 3/3/2 5/5/2 6/6/2
f 6/6/3 5/5/3 7/7/3 8/8/3
f 8/8/4 7/7/4 2/9/4 1/10/4
f 4/11/5 6/6/5 8/8/5 1/12/5
f 5/5/6 3/13/6 2/14/6 7/7/6
o 立方体.001
v -1.000000 -1.000000 1.000000
v -1.000000 1.000000 1.000000
v -1.000000 1.000000 -1.000000
v -1.000000 -1.000000 -1.000000
v 1.000000 1.000000 -1.000000
v 1.000000 -1.000000 -1.000000
v 1.000000 1.000000 1.000000
v 1.000000 -1.000000 1.000000
vt 0.336383 0.007990
vt 0.336383 0.254794
vt 0.667870 0.254794
vt 0.667870 0.007990
vt 0.336383 0.500000
vt 0.667870 0.500000
vt 0.336383 0.748402
vt 0.667870 0.748402
vt 0.336383 0.996804
vt 0.667870 0.996804
vt 0.009150 0.500000
vt 0.009150 0.750000
vt 0.995103 0.750000
vt 0.995103 0.500000
vn 1.0000 0.0000 0.0000
vn 0.0000 0.0000 1.0000
vn -1.0000 0.0000 0.0000
vn 0.0000 -0.0000 -1.0000
vn 0.0000 1.0000 -0.0000
vn 0.0000 -1.0000 0.0000
usemtl マテリアル
s 1
f 9/15/7 12/16/7 11/17/7 10/18/7
f 12/16/8 14/19/8 13/20/8 11/17/8
f 14/19/9 16/21/9 15/22/9 13/20/9
f 16/21/10 9/23/10 10/24/10 15/22/10
f 12/25/11 9/26/11 16/21/11 14/19/11
f 13/20/12 15/22/12 10/27/12 11/28/12
