# Blender v3.6.0 OBJ File: ''
# www.blender.org
mtllib leftwing_new.mtl
o f35c-airframe.002
v 0.917260 -0.077700 -0.197007
v 0.919742 -0.095996 -0.225205
v 0.758694 -0.165603 -0.189331
v 0.697982 -0.147393 -0.139631
v 0.391757 -0.094483 -0.067534
v 0.366367 -0.094002 -0.088686
v 0.410620 -0.118625 -0.099233
v 0.484694 -0.124305 -0.089932
v 0.484694 -0.140227 -0.117402
v 0.305189 -0.036909 -0.044835
v 0.303442 -0.053130 -0.079502
v 0.324618 -0.059395 -0.078141
v 0.925452 -0.031355 -0.199015
v 0.936455 -0.013062 -0.234654
v -0.939557 0.061766 0.229812
v -0.942775 -0.011042 0.225644
v -0.939766 0.007199 0.259433
v -1.047041 0.028961 0.250158
v 0.994074 -0.065200 -0.254748
v 0.989170 -0.045461 -0.241744
v 0.307545 -0.054463 -0.073226
v -1.038867 -0.005144 -0.396758
v 0.238968 0.002815 -0.325199
v 0.992662 -0.081741 -0.946573
v 0.379362 -0.062078 -0.348383
v 0.412397 -0.127548 -0.191501
v 0.810450 -0.087005 -0.446526
vt 0.754312 0.872507
vt 0.756348 0.874268
vt 0.752930 0.875183
vt 0.746582 0.874390
vt 0.746582 0.876831
vt 0.761445 0.870464
vt 0.763183 0.872559
vt 0.760254 0.873291
vt 0.728516 0.878805
vt 0.527344 0.405273
vt 0.520020 0.401901
vt 0.529520 0.400254
vt 0.524883 0.482956
vt 0.521527 0.471733
vt 0.528809 0.470903
vt 0.524347 0.393133
vt 0.122742 0.479004
vt 0.121257 0.450734
vt 0.123514 0.452881
vt 0.120300 0.529541
vt 0.123108 0.477539
vt 0.124451 0.475586
vt 0.125730 0.458656
vt 0.125366 0.474121
vt 0.126221 0.470703
vt 0.865723 0.846436
vt 0.865723 0.843750
vt 0.399419 0.242189
vt 0.555176 0.280762
vt 0.399198 0.244636
vt 0.555176 0.315331
vt 0.559518 0.288400
vt 0.559589 0.316424
vt 0.505356 0.292424
vt 0.476589 0.296259
vt 0.474093 0.266977
vt 0.474121 0.295401
vt 0.878017 0.809021
vt 0.882324 0.808213
vt 0.882156 0.835433
vt 0.825973 0.821667
vt 0.822555 0.833058
vt 0.796346 0.858026
vt 0.822754 0.821899
vt 0.820469 0.825788
vt 0.821289 0.822266
vt 0.817871 0.823120
vt 0.809082 0.825317
vt 0.804542 0.826557
vt 0.804517 0.837181
vt 0.801181 0.827581
vt 0.799316 0.827748
vt 0.796545 0.828699
vn -0.3466 -0.8157 0.4632
vn -0.6040 -0.6860 -0.4058
vn -0.1849 -0.8363 0.5161
vn -0.0673 -0.8592 0.5073
vn -0.0410 -0.8645 0.5010
vn -0.1187 -0.9084 0.4010
vn -0.0881 -0.9613 0.2611
vn -0.5762 -0.6074 -0.5468
vn 0.0232 -0.8649 0.5013
vn 0.9628 -0.1701 0.2099
vn 0.2047 -0.0650 0.9767
vn 0.3568 0.0345 0.9336
vn -0.2389 -0.0243 -0.9707
vn -0.2401 0.0072 -0.9707
vn -0.2400 0.0181 -0.9706
vn -0.2393 -0.0386 -0.9702
vn -0.2397 0.0495 -0.9696
vn -0.2565 -0.0488 -0.9653
vn -0.2602 -0.0833 -0.9619
vn -0.1036 -0.9768 0.1876
vn 0.0831 -0.8800 0.4677
vn 0.1552 0.8586 0.4886
vn -0.1549 0.9850 -0.0763
vn -0.0288 0.9939 -0.1063
vn -0.3008 0.9521 -0.0540
vn 0.0167 0.9958 -0.0900
vn 0.2956 0.9533 -0.0624
vn 0.0767 0.9918 -0.1020
vn 0.6672 0.7447 -0.0192
vn -0.3486 -0.9362 0.0450
vn -0.0664 -0.9978 0.0027
vn -0.0624 -0.9934 -0.0959
vn -0.0114 -0.9998 -0.0175
vn -0.5218 -0.8519 0.0444
vn -0.6110 -0.7885 -0.0704
vn -0.3626 -0.9191 -0.1540
vn -0.3858 -0.9190 0.0814
vn -0.1142 -0.9917 -0.0582
vn -0.6656 -0.7281 -0.1637
vn -0.1016 -0.9774 0.1856
vn -0.1199 -0.9775 -0.1737
vn -0.0185 -0.9955 -0.0935
vn 0.4715 -0.8654 -0.1696
vn 0.0492 -0.9987 0.0162
vn -0.3782 -0.8957 0.2338
vn 0.3899 -0.9206 0.0212
usemtl マテリアル.006
s 1
f 5/1/1 6/2/2 7/3/3
f 7/3/3 8/4/4 5/1/1
f 8/4/4 7/3/3 9/5/5
f 10/6/6 11/7/7 12/8/8
f 9/5/5 4/9/9 8/4/4
f 12/8/8 5/1/1 10/6/6
f 5/1/1 12/8/8 6/2/2
f 13/10/10 2/11/10 14/12/10
f 18/13/11 16/14/11 15/15/11
f 19/16/12 14/12/12 2/11/12
f 21/17/13 20/18/14 2/19/15
f 15/20/16 20/18/14 21/17/13
f 2/19/15 12/21/8 21/17/13
f 12/21/8 2/19/15 6/22/2
f 6/22/2 2/19/15 3/23/17
f 6/22/2 3/23/17 7/24/18
f 3/23/17 9/25/19 7/24/18
f 10/6/6 16/26/20 11/7/7
f 16/26/20 10/6/6 17/27/21
f 14/28/22 15/29/22 13/30/22
f 15/31/23 22/32/24 18/33/25
f 23/34/26 15/31/23 14/35/27
f 23/34/26 22/32/24 15/31/23
f 22/32/24 23/34/26 24/36/28
f 23/34/26 14/35/27 24/36/28
f 19/37/29 24/36/28 14/35/27
f 16/38/20 18/39/30 22/40/31
f 22/40/31 11/41/7 16/38/20
f 25/42/32 22/40/31 24/43/33
f 11/41/7 22/40/31 25/42/32
f 6/44/34 11/41/35 26/45/36
f 26/45/36 7/46/37 6/44/34
f 26/45/36 9/47/38 7/46/37
f 11/41/35 25/42/39 26/45/36
f 26/45/36 4/48/40 9/47/38
f 4/48/40 26/45/36 3/49/41
f 3/49/41 26/45/36 25/42/32
f 25/42/32 27/50/42 3/49/41
f 24/43/33 27/50/42 25/42/32
f 3/49/43 27/50/42 1/51/44
f 27/50/42 2/52/45 1/51/44
f 27/50/42 24/43/33 2/52/45
f 24/43/33 19/53/46 2/52/45
