# Blender v3.6.0 OBJ File: ''
# www.blender.org
mtllib leftwing.mtl
o f35c-airframe.001
v 0.998469 -0.045538 -0.463967
v 0.998469 -0.045538 -0.463967
v -0.370984 -0.092524 -0.094824
v -0.370984 -0.092524 -0.094824
v -1.064845 -0.119799 -0.985596
v -0.732261 -0.104972 -0.902508
v -0.996109 -0.051279 -0.256566
v -0.996109 -0.051279 -0.256566
v -0.996109 -0.051279 -0.256566
v -1.065154 -0.118288 -0.985737
v -1.065154 -0.118288 -0.985737
v -0.508563 -0.104501 -0.846449
v -0.508563 -0.104501 -0.846449
v -0.508563 -0.104501 -0.846449
v -0.820016 -0.206148 -0.204539
v -0.453648 -0.155160 -0.115494
v -0.453648 -0.155160 -0.115494
v 0.893609 -0.050239 0.209909
v -0.999923 -0.125423 -0.250628
v -0.999923 -0.125423 -0.250628
v -0.911816 -0.133049 -0.417538
v -0.911816 -0.133049 -0.417538
v -0.911816 -0.133049 -0.417538
v -0.911816 -0.133049 -0.417538
v 0.892923 0.030772 0.208902
v 0.892923 0.030772 0.208902
v -0.325275 -0.080008 -0.802885
v -0.325275 -0.080008 -0.802885
v 0.997557 -0.046108 -0.464014
v -1.066903 -0.091913 -0.275643
v -0.820016 -0.206148 -0.204539
v 0.998537 -0.008363 0.233398
v -1.064845 -0.119799 -0.985596
v -0.732261 -0.104972 -0.902508
v -0.996109 -0.051279 -0.256566
v -0.453648 -0.155160 -0.115494
v 0.998568 -0.010534 0.233503
v -0.999923 -0.125423 -0.250628
v -1.069069 -0.096360 -0.275597
v 0.892923 0.030772 0.208902
v -0.325275 -0.080008 -0.802885
v 0.997557 -0.046108 -0.464014
v -0.911816 -0.133049 -0.417538
v -1.065154 -0.118288 -0.985737
v -0.508563 -0.104501 -0.846449
v 0.893609 -0.050239 0.209909
v 0.998469 -0.045538 -0.463967
v -0.370984 -0.092524 -0.094824
vt 0.381910 0.825954
vt 0.384039 0.835257
vt 0.368338 0.822952
vt 0.368338 0.822952
vt 0.384039 0.835257
vt 0.368775 0.852530
vt 0.073920 0.270076
vt 0.085241 0.296560
vt 0.055746 0.274545
vt 0.389317 0.827900
vt 0.391846 0.858027
vt 0.384039 0.835257
vt 0.088135 0.295408
vt 0.085241 0.296560
vt 0.088136 0.266617
vt 0.381910 0.825954
vt 0.389317 0.827900
vt 0.384039 0.835257
vt 0.002489 0.316894
vt 0.002489 0.288085
vt 0.007121 0.315915
vt 0.007121 0.315915
vt 0.055746 0.274545
vt 0.085241 0.296560
vt 0.085241 0.296560
vt 0.073920 0.270076
vt 0.088136 0.266617
vt 0.368775 0.852530
vt 0.363182 0.821456
vt 0.368338 0.822952
vt 0.310557 0.808810
vt 0.306152 0.836667
vt 0.306152 0.807740
vt 0.391844 0.829101
vt 0.391846 0.858027
vt 0.389317 0.827900
vt 0.002489 0.288085
vt 0.055746 0.274545
vt 0.007121 0.315915
vt 0.391846 0.858027
vt 0.368775 0.852530
vt 0.384039 0.835257
vt 0.368775 0.852530
vt 0.306152 0.836667
vt 0.363182 0.821456
vt 0.363182 0.821456
vt 0.306152 0.836667
vt 0.310557 0.808810
vn 0.0436 -0.9233 -0.3817
vn -0.0493 -0.9980 -0.0398
vn 0.4185 -0.8962 -0.1471
vn 0.0535 -0.9984 -0.0206
vn -0.0403 0.9954 -0.0872
vn -0.2066 0.9757 -0.0731
vn -0.0172 0.9963 -0.0842
vn -0.3422 -0.9383 -0.0507
vn -0.0107 -0.9997 -0.0199
vn -0.4884 0.8720 -0.0336
vn -0.0586 0.9958 -0.0708
vn 0.0436 -0.9232 -0.3817
vn 0.3568 0.9327 -0.0524
vn 0.0350 0.9942 -0.1019
vn 0.1889 0.9785 -0.0834
vn 0.1889 0.9784 -0.0834
vn 0.2621 -0.9640 -0.0456
vn 0.1936 -0.9810 0.0117
vn 0.0564 -0.9983 0.0144
vn 0.3428 -0.9384 0.0441
vn -0.3914 -0.9200 0.0184
usemtl f35c-airframe
s 1
f 31/1/1 43/2/2 36/3/3
f 17/4/3 23/5/2 45/6/4
f 6/7/5 35/8/6 41/9/7
f 38/10/8 44/11/9 21/12/2
f 30/13/10 8/14/6 33/15/11
f 15/16/12 20/17/8 24/18/2
f 32/19/13 42/20/14 40/21/15
f 25/22/16 27/23/7 9/24/6
f 7/25/6 34/26/5 5/27/11
f 13/28/4 4/29/17 16/30/3
f 18/31/18 47/32/19 37/33/20
f 39/34/21 10/35/9 19/36/8
f 29/37/14 28/38/7 26/39/15
f 11/40/9 14/41/4 22/42/2
f 12/43/4 1/44/19 48/45/17
f 3/46/17 2/47/19 46/48/18
