# Blender v3.6.0 OBJ File: ''
# www.blender.org
mtllib rightwing.mtl
o f35c-airframe.001
v 1.001696 -0.092061 -0.240350
v 1.000596 -0.119058 -0.950473
v 0.931812 -0.048432 -0.221958
v -1.062480 -0.043598 -0.428880
v -0.958158 -0.047760 0.245190
v -1.063160 -0.010271 0.268751
v 0.787729 -0.112582 -0.487218
v 1.000569 -0.118096 -0.950496
v 0.929709 -0.125460 -0.214225
v -0.957496 0.028118 0.244571
v 0.453398 -0.032134 -0.332775
v 0.477168 -0.104769 -0.819423
v 0.389647 -0.154022 -0.080073
v 0.310450 -0.092115 -0.060469
v 1.004147 -0.095859 -0.240337
v 0.754221 -0.202939 -0.168516
v -1.062142 -0.045864 -0.428765
v -1.063129 -0.008099 0.268646
v 0.477154 -0.089609 -0.821619
vt 0.474121 0.295409
vt 0.474120 0.266123
vt 0.477046 0.296385
vt 0.882324 0.836915
vt 0.877924 0.809004
vt 0.882324 0.808229
vt 0.805876 0.838971
vt 0.796387 0.858149
vt 0.799389 0.827786
vt 0.555168 0.315039
vt 0.496811 0.293002
vt 0.817890 0.852729
vt 0.820217 0.822727
vt 0.825502 0.821289
vt 0.796389 0.828733
vt 0.806291 0.825822
vt 0.559570 0.288085
vt 0.559570 0.316406
vt 0.496028 0.271858
vn 0.5211 0.8529 -0.0312
vn 0.0650 0.9951 -0.0751
vn 0.2414 0.9679 -0.0704
vn -0.0573 -0.9983 0.0095
vn -0.1905 -0.9816 0.0096
vn -0.3257 -0.9445 0.0420
vn -0.0119 -0.9986 -0.0518
vn -0.0066 -1.0000 0.0045
vn 0.3117 -0.9426 -0.1199
vn -0.1727 0.9815 -0.0831
vn 0.0309 0.9964 -0.0787
vn -0.0231 -0.9997 -0.0066
vn -0.4048 -0.9004 -0.1592
vn -0.2846 -0.9571 -0.0539
vn 0.3694 -0.9289 0.0260
vn -0.0073 -0.9602 -0.2791
vn -0.0298 0.9941 -0.1044
vn -0.3338 0.9412 -0.0530
vn 0.0181 0.9949 -0.0990
usemtl f35c-airframe
s 1
f 1/1/1 2/2/2 3/3/3
f 4/4/4 5/5/5 6/6/6
f 7/7/7 8/8/8 9/9/9
f 10/10/10 3/3/3 11/11/11
f 12/12/12 13/13/13 14/14/14
f 8/8/8 15/15/15 9/9/9
f 14/14/14 4/4/4 12/12/12
f 7/7/7 9/9/9 16/16/16
f 7/7/7 13/13/13 12/12/12
f 16/16/16 13/13/13 7/7/7
f 14/14/14 5/5/5 4/4/4
f 8/8/8 7/7/7 12/12/12
f 10/10/10 17/17/17 18/18/18
f 11/11/11 17/17/17 10/10/10
f 3/3/3 19/19/19 11/11/11
f 11/11/11 19/19/19 17/17/17
f 3/3/3 2/2/2 19/19/19
