# Blender v3.6.0 OBJ File: ''
# www.blender.org
mtllib rightvertical.mtl
o f35c-airframe.002_f35c-airframe.003
v 0.577219 1.490682 -0.837802
v -0.184408 -0.514079 -0.331652
v 0.553753 1.498849 -1.356015
v -0.259870 -0.978398 0.344836
v -0.352767 -0.969280 -0.095578
v -0.113608 -0.465633 0.235198
v 0.541415 1.505658 -0.837804
v -0.201712 -0.560636 -0.308073
v -0.165213 -0.389594 0.227598
v 0.553753 1.498849 -1.356015
v -0.426656 -0.912081 0.350992
v -0.306677 -0.649011 0.361814
v -0.356212 -0.967995 -0.096000
v -0.420753 -0.855565 0.483538
v -0.226038 -0.941237 0.479558
vt 0.135254 0.798218
vt 0.113417 0.710357
vt 0.156860 0.798218
vt 0.086234 0.689941
vt 0.104492 0.689941
vt 0.090765 0.712677
vt 0.135254 0.559326
vt 0.112498 0.646479
vt 0.091003 0.643311
vt 0.156860 0.559326
vt 0.086544 0.667485
vt 0.085698 0.654883
vt 0.104922 0.667718
vt 0.080566 0.665283
vt 0.080566 0.691895
vn 0.9303 -0.3644 -0.0414
vn 0.9271 -0.3631 -0.0928
vn 0.9308 -0.3635 -0.0389
vn 0.9321 -0.3287 -0.1523
vn 0.8789 -0.4400 -0.1843
vn 0.9405 -0.3257 -0.0967
vn -0.9422 0.3348 -0.0131
vn -0.9365 0.3432 -0.0720
vn -0.9135 0.4039 -0.0482
vn -0.9428 0.3322 -0.0268
vn -0.9098 0.3976 -0.1192
vn -0.8954 0.4341 -0.0992
vn -0.9511 0.2537 -0.1765
vn -0.8986 0.4139 -0.1455
vn 0.9418 -0.2967 -0.1580
usemtl f35c-airframe.001
s 1
f 1/1/1 2/2/2 3/3/3
f 4/4/4 5/5/5 2/2/2
f 1/1/1 6/6/6 2/2/2
f 7/7/7 8/8/8 9/9/9
f 10/10/10 8/8/8 7/7/7
f 9/9/9 8/8/8 11/11/11 12/12/12
f 11/11/11 8/8/8 13/13/13
f 2/2/2 6/6/6 4/4/4
f 11/11/11 14/14/14 12/12/12
f 15/15/15 4/4/4 6/6/6
