# Blender v3.6.0 OBJ File: ''
# www.blender.org
mtllib backleftwing_new.mtl
o f35c-airframe.004
v 0.470330 0.094661 -0.109308
v 0.402528 0.143394 -0.095841
v 0.332760 0.171036 -0.081964
v 0.262008 0.184990 -0.067880
v -0.137058 0.200462 0.011460
v -0.217559 0.188419 0.025826
v -0.304923 0.160043 0.039762
v -0.393601 0.082348 0.058857
v -0.403005 0.150836 -0.027605
v -0.409397 0.035531 -0.101425
v -0.325892 -0.046947 0.048958
v -0.213099 -0.179551 0.026563
v -0.154930 -0.206966 0.015013
v -0.092153 -0.229642 0.002547
v 0.191532 -0.246131 -0.053827
v 0.268939 -0.219631 -0.069123
v 0.332094 -0.166445 -0.081866
v -0.451873 0.112952 0.472891
v -0.219214 0.202891 -0.074767
v -0.536675 0.136810 -0.759756
v -0.280212 0.175495 -0.683591
v 0.299711 0.141161 -0.733181
v 0.460095 0.086306 -0.232602
v 0.226274 0.030623 -1.571608
v -0.392946 0.070814 -1.405803
v -2.644231 0.214305 -0.912370
v -2.556465 0.245432 -0.204112
v -2.777458 0.222014 -0.045261
v -0.539700 0.103660 1.497081
v -0.172046 -0.192090 -0.066102
v -0.235214 -0.017356 -0.538326
v 0.211323 -0.213452 -0.237461
v 0.314710 -0.155241 -0.214302
v 0.227485 -0.081061 -0.578810
v -0.672412 0.103999 0.015987
vt 0.351562 0.194336
vt 0.356196 0.190467
vt 0.356445 0.194824
vt 0.348001 0.188794
vt 0.347656 0.193848
vt 0.344238 0.192871
vt 0.361479 0.160477
vt 0.327393 0.189941
vt 0.350282 0.163531
vt 0.326773 0.165141
vt 0.324219 0.188965
vt 0.321289 0.188477
vt 0.317627 0.187988
vt 0.317872 0.182122
vt 0.330071 0.126510
vt 0.359424 0.132622
vt 0.450175 0.154681
vt 0.445801 0.184082
vt 0.454346 0.192383
vt 0.362600 0.254850
vt 0.358355 0.204581
vt 0.674316 0.926453
vt 0.672996 0.934309
vt 0.668945 0.926697
vt 0.660865 0.933599
vt 0.662109 0.927368
vt 0.659180 0.927917
vt 0.656738 0.928467
vt 0.664080 0.951397
vt 0.645508 0.931274
vt 0.644676 0.938391
vt 0.642090 0.932129
vt 0.638672 0.933044
vt 0.640158 0.938552
vt 0.627441 0.937958
vt 0.628909 0.942542
vt 0.644256 0.954421
vt 0.645981 0.997781
vt 0.675043 0.988126
vt 0.683099 0.930560
vt 0.770896 0.972976
vt 0.771074 0.932320
vt 0.680703 0.870030
vt 0.675780 0.917786
vn -0.4620 0.6701 0.5810
vn -0.0927 0.9941 0.0565
vn -0.2415 0.9543 0.1763
vn -0.1182 0.9921 0.0412
vn -0.2134 0.9665 0.1426
vn -0.0133 0.9991 0.0408
vn -0.0363 0.9970 -0.0688
vn 0.0987 0.9935 -0.0561
vn -0.0384 0.9957 -0.0840
vn 0.3184 0.9150 -0.2478
vn 0.2626 0.9632 -0.0575
vn 0.4641 0.8824 -0.0780
vn 0.5722 0.8145 -0.0958
vn 0.6034 0.7903 -0.1067
vn 0.7114 0.6860 -0.1528
vn 0.0209 0.9924 -0.1213
vn 0.0287 0.9907 -0.1331
vn 0.0211 0.9986 -0.0494
vn -0.0300 0.9995 0.0129
vn -0.0645 0.9963 0.0571
vn 0.0507 0.9984 0.0232
vn 0.0493 0.9979 0.0420
vn -0.8570 -0.4657 0.2205
vn -0.4882 -0.8726 0.0180
vn -0.7691 -0.6383 0.0337
vn -0.4424 -0.8720 -0.2095
vn -0.6716 -0.7131 -0.2010
vn -0.3943 -0.9151 -0.0846
vn -0.1914 -0.9376 -0.2902
vn -0.2779 -0.9513 -0.1333
vn 0.0368 -0.9819 -0.1856
vn 0.1805 -0.9450 -0.2729
vn 0.4648 -0.8646 -0.1908
vn 0.5675 -0.7989 -0.1991
vn 0.6969 -0.6859 -0.2095
vn 0.8596 -0.5062 -0.0692
vn 0.8665 -0.4749 -0.1539
vn 0.8181 -0.5604 -0.1294
vn 0.1585 -0.9642 -0.2124
vn 0.0188 -0.9936 -0.1118
vn -0.1166 -0.9918 -0.0529
vn -0.1217 -0.9921 0.0306
vn -0.0577 -0.9983 0.0040
vn -0.0560 -0.9984 0.0016
vn -0.0384 -0.9993 0.0032
vn 0.0076 -0.9998 0.0159
usemtl マテリアル.006
s 1
f 7/1/1 9/2/1 8/3/1
f 9/2/2 7/1/3 19/4/4
f 6/5/5 19/4/4 7/1/3
f 5/6/6 19/4/4 6/5/5
f 19/4/4 20/7/7 9/2/2
f 4/8/8 19/4/4 5/6/6
f 20/7/7 19/4/4 21/9/9
f 19/4/4 4/8/8 22/10/10
f 3/11/11 22/10/10 4/8/8
f 22/10/10 21/9/9 19/4/4
f 2/12/12 22/10/10 3/11/11
f 1/13/13 22/10/10 2/12/12
f 22/10/10 1/13/13 23/14/14
f 24/15/15 22/10/10 23/14/14
f 25/16/16 22/10/10 24/15/17
f 22/10/10 25/16/16 21/9/9
f 25/16/16 20/7/7 21/9/9
f 25/16/16 26/17/18 20/7/7
f 26/17/18 9/2/2 20/7/7
f 9/2/2 26/17/18 27/18/19
f 26/17/18 28/19/20 27/18/19
f 29/20/21 27/18/19 28/19/20
f 18/21/22 9/2/2 27/18/19
f 29/20/21 18/21/22 27/18/19
f 8/22/23 10/23/24 11/24/25
f 11/24/25 10/23/24 30/25/26
f 30/25/26 12/26/27 11/24/25
f 30/25/26 13/27/28 12/26/27
f 30/25/26 14/28/29 13/27/28
f 30/25/26 10/23/24 31/29/30
f 30/25/26 15/30/31 14/28/29
f 15/30/31 30/25/26 32/31/32
f 32/31/32 16/32/33 15/30/31
f 32/31/32 17/33/34 16/32/33
f 31/29/30 32/31/32 30/25/26
f 17/33/34 32/31/32 33/34/35
f 1/35/36 17/33/37 33/34/35
f 33/34/35 23/36/38 1/35/36
f 23/36/38 33/34/35 34/37/39
f 32/31/32 34/37/39 33/34/35
f 32/31/32 31/29/30 34/37/39
f 23/36/38 34/37/39 24/38/40
f 34/37/39 25/39/41 24/38/40
f 25/39/41 34/37/39 31/29/30
f 35/40/42 25/39/41 31/29/30
f 35/40/42 31/29/30 10/23/24
f 26/41/43 25/39/41 35/40/42
f 35/40/42 28/42/44 26/41/43
f 29/43/45 28/42/44 35/40/42
f 35/40/42 10/23/24 18/44/46
f 18/44/46 29/43/45 35/40/42
