# Blender v3.6.0 OBJ File: ''
# www.blender.org
mtllib backleftwing.mtl
o f35c-airframe.001
v -2.842967 0.218884 -0.925256
v -0.678234 0.101270 -1.331236
v -2.842744 0.239868 0.085481
v -0.309944 0.219385 0.131980
v -0.452070 0.171116 0.081141
v -0.443165 0.097360 0.156093
v -2.843699 0.242433 -0.927076
v -0.528210 0.146017 -0.931747
v -0.527968 0.089647 -1.360144
v -0.654138 0.144815 0.408778
v -0.643160 0.156102 0.266966
v -0.475685 0.152597 0.288156
v -0.465469 0.050516 0.026156
v -0.282542 0.008954 -0.508232
v -0.232338 -0.189449 0.118033
v -0.667064 0.107605 0.110485
v -0.443165 0.097360 0.156093
v -0.458765 0.063598 0.064165
v -0.591182 0.119762 1.615396
v 0.450462 0.100643 -0.017670
v 0.174806 -0.077157 -0.457321
v 0.184434 0.041740 -1.494613
v -0.591299 0.117280 1.615360
v 0.353452 0.197294 0.001264
v 0.215970 -0.236699 0.027537
v 0.433517 0.103873 -0.014774
v 0.186201 0.044663 -1.494241
v -2.842291 0.243571 0.085605
v -0.643238 0.152102 0.266674
v -0.465469 0.057437 0.027793
v -0.667064 0.114526 0.112123
v -0.458765 0.070519 0.065803
vt 0.771489 0.973562
vt 0.678438 0.988171
vt 0.771482 0.931948
vt 0.350397 0.193783
vt 0.356438 0.191573
vt 0.356445 0.194824
vt 0.454367 0.150353
vt 0.354784 0.156257
vt 0.359048 0.132530
vt 0.364733 0.205079
vt 0.364502 0.199707
vt 0.357910 0.200684
vt 0.674145 0.932900
vt 0.663788 0.954763
vt 0.660907 0.927741
vt 0.681743 0.930524
vt 0.674316 0.926453
vt 0.674054 0.931367
vt 0.680664 0.869995
vt 0.627477 0.938068
vt 0.644960 0.954147
vt 0.645977 0.997583
vt 0.362549 0.254883
vt 0.325298 0.188754
vt 0.642239 0.932047
vt 0.317635 0.187911
vt 0.330086 0.126470
vt 0.454346 0.192383
vt 0.364502 0.199707
vt 0.674145 0.932900
vt 0.674054 0.931367
vt 0.681743 0.930524
vn -0.0432 -0.9986 0.0305
vn -0.0897 -0.9958 -0.0194
vn -0.0460 -0.9989 0.0062
vn -0.1774 0.9795 0.0957
vn -0.2156 0.9650 0.1494
vn -0.4424 0.6124 0.6552
vn 0.0523 0.9986 -0.0062
vn 0.0318 0.9961 -0.0818
vn 0.0302 0.9911 -0.1295
vn 0.0012 0.9992 0.0395
vn -0.0043 0.9990 0.0435
vn 0.0378 0.9943 0.0998
vn -0.5250 -0.8495 0.0517
vn -0.2197 -0.9687 -0.1159
vn -0.4543 -0.8691 -0.1955
vn -0.1460 -0.9892 0.0104
vn -0.7364 -0.5862 0.3377
vn -0.2063 -0.9779 0.0327
vn -0.0802 -0.9967 0.0102
vn 0.7234 -0.6541 -0.2210
vn 0.2379 -0.9559 -0.1724
vn -0.0041 -0.9973 -0.0737
vn -0.0138 0.9999 0.0099
vn 0.0312 0.9994 0.0173
vn 0.3921 0.9101 -0.1339
vn 0.2691 -0.9016 -0.3386
vn 0.7418 0.6539 -0.1491
vn 0.0771 0.9906 -0.1131
vn 0.0162 0.9992 0.0355
vn -0.0396 0.9992 0.0030
vn -0.1471 -0.9202 0.3629
vn -0.1357 -0.9297 0.3423
vn -0.1151 -0.9333 0.3402
usemtl f35c-airframe
s 1
f 1/1/1 2/2/2 3/3/3
f 4/4/4 5/5/5 6/6/6
f 7/7/7 8/8/8 9/9/9
f 10/10/10 11/11/11 7/7/7
f 11/11/11 12/12/12 5/5/5
f 13/13/13 14/14/14 15/15/15
f 16/16/16 2/2/2 14/14/14
f 16/16/16 14/14/14 13/13/13
f 17/17/17 13/13/13 15/15/15
f 2/2/2 16/16/16 3/3/3
f 18/18/18 19/19/19 16/16/16
f 20/20/20 21/21/21 22/22/22
f 3/3/3 16/16/16 19/19/19
f 8/8/8 5/5/5 4/4/4
f 12/12/23 10/10/10 23/23/24
f 24/24/25 8/8/8 4/4/4
f 8/8/8 7/7/7 11/11/11
f 5/5/5 8/8/8 11/11/11
f 2/2/2 22/22/22 14/14/14
f 20/20/20 25/25/26 21/21/21
f 26/26/27 27/27/28 24/24/25
f 27/27/28 8/8/8 24/24/25
f 10/10/10 28/28/29 23/23/24
f 12/12/23 29/29/30 10/10/10
f 22/22/22 21/21/21 14/14/14
f 21/21/21 15/15/15 14/14/14
f 27/27/28 9/9/9 8/8/8
f 10/10/10 7/7/7 28/28/29
f 21/21/21 25/25/26 15/15/15
f 30/30/31 32/31/32 31/32/33
