# Blender v3.6.0 OBJ File: ''
# www.blender.org
mtllib leftvertical_new.mtl
o f35c-airframe.006_f35c-airframe.008
v -0.440210 1.159422 -0.619874
v -0.405481 1.173987 -0.619879
v 0.493234 -1.057628 0.626707
v 0.436135 -0.955876 0.566369
v 0.365302 -0.827220 0.499548
v 0.292833 -0.697455 0.432231
v 0.237804 -0.722255 0.415194
v 0.265003 -0.858361 0.484771
v 0.296672 -0.994467 0.554347
v 0.326756 -1.130144 0.623704
v 0.509404 -1.151799 0.725910
v 0.372450 -1.212896 0.723289
v 0.382800 -1.276397 0.555244
v 0.552834 -1.212649 0.553919
v 0.478614 -1.269900 0.105888
v 0.306489 -0.815590 -0.093507
v -0.418642 1.168643 -1.085846
v 0.345234 -0.833689 0.249716
vt 0.049014 0.904814
vt 0.023849 0.996458
vt 0.002748 0.996434
vt 0.067322 0.912354
vt 0.072879 0.888029
vt 0.070251 0.906555
vt 0.054577 0.888469
vt 0.073181 0.900696
vt 0.076111 0.894836
vt 0.078491 0.890015
vt 0.075928 0.859375
vt 0.078491 0.863770
vt 0.072597 0.865845
vt 0.061675 0.847829
vt 0.073425 0.853516
vt 0.054149 0.865864
vt 0.070862 0.847656
vt 0.046946 0.850972
vt 0.068054 0.841919
vt 0.023773 0.757812
vt 0.003811 0.757812
vn -0.9316 -0.3526 -0.0882
vn -0.9296 -0.3651 -0.0511
vn -0.9297 -0.3649 -0.0503
vn -0.9461 -0.3136 -0.0814
vn -0.9340 -0.3488 -0.0776
vn -0.9303 -0.2982 -0.2137
vn -0.8858 -0.4212 -0.1950
vn -0.9470 -0.2897 -0.1388
vn -0.9419 -0.3288 -0.0687
vn -0.9146 -0.3937 0.0925
vn 0.9259 0.3770 -0.0238
vn 0.9444 0.3011 0.1319
vn 0.9303 0.3583 -0.0780
vn 0.9290 0.3601 -0.0851
vn 0.8893 0.4499 -0.0817
vn 0.9287 0.3358 -0.1573
vn 0.8896 0.4492 -0.0831
vn 0.9474 0.3071 -0.0908
vn 0.9175 0.3965 -0.0325
vn 0.9403 0.3392 -0.0287
vn 0.9416 0.3347 -0.0368
usemtl マテリアル.006
s 1
f 16/1/1 1/2/2 17/3/3
f 1/2/2 16/1/1 7/4/4
f 13/5/5 7/4/4 16/1/1
f 7/4/4 13/5/5 8/6/6
f 16/1/1 15/7/7 13/5/5
f 8/6/6 13/5/5 9/8/8
f 9/8/8 13/5/5 10/9/9
f 13/5/5 12/10/10 10/9/9
f 3/11/11 11/12/12 14/13/13
f 14/13/13 18/14/14 3/11/11
f 18/14/14 4/15/15 3/11/11
f 18/14/14 14/13/13 15/16/16
f 18/14/14 5/17/17 4/15/15
f 16/18/18 18/14/14 15/16/16
f 18/14/14 6/19/19 5/17/17
f 2/20/20 6/19/19 18/14/14
f 18/14/14 17/21/21 2/20/20
f 17/21/21 18/14/14 16/18/18
