# Blender v3.6.0 OBJ File: ''
# www.blender.org
mtllib arrow.mtl
o Cube.001
v -0.000000 0.776655 -0.043987
v -0.000000 0.000001 7.455337
v -0.000000 0.000001 7.455337
v -0.000000 0.000001 7.455337
v -0.000000 0.000001 7.455337
v -0.776655 0.776655 -0.043987
v -0.776655 -0.000000 -0.043987
v 0.000000 -0.776655 -0.043987
v -0.000000 0.000001 7.455337
v -0.000000 0.000001 7.455337
v 0.776655 0.000000 -0.043987
v -0.000000 0.000001 7.455337
v -0.000000 0.000001 7.455337
v -0.000000 0.000000 0.462750
v 0.776655 -0.776655 -0.043987
v -0.000000 0.000001 7.455337
v -0.776655 -0.776655 -0.043987
v 0.776655 0.776655 -0.043987
vt 0.822379 0.666223
vt 0.987826 0.995072
vt 0.742849 0.990810
vt 0.416212 0.006926
vt 0.416744 0.006926
vt 0.416212 0.007459
vt 0.662254 0.332579
vt 0.500000 0.333644
vt 0.169106 0.668354
vt 0.330295 0.990810
vt 0.089576 0.990810
vt 0.500000 0.665690
vt 0.663318 0.990810
vt 0.420470 0.990810
vt 0.661722 0.494339
vt 0.500000 0.496470
vt 0.333489 0.495938
vt 0.334553 0.668354
vt 0.334021 0.007459
vt 0.334449 0.335242
vt 0.334553 0.007459
vt 0.334553 0.006926
vt 0.332424 0.988679
vt 0.330295 0.988679
vt 0.007916 0.666223
vt 0.010045 0.988679
vt 0.422598 0.990810
vt 0.422598 0.988679
vt 0.661722 0.666223
vt 0.987826 0.666223
vt 0.416744 0.007459
vt 0.660657 0.005328
vt 0.333489 0.007459
vt 0.330295 0.990810
vt 0.420470 0.992941
vn 0.0000 0.0000 1.0000
vn -0.9947 -0.0000 0.1030
vn -0.4795 -0.4795 -0.7349
vn 0.0000 0.0000 -1.0000
vn 0.4795 -0.4795 -0.7349
vn -0.0000 0.9947 0.1030
vn 0.0000 -0.9947 0.1030
vn 0.9947 0.0000 0.1030
vn -0.4795 0.4795 -0.7349
vn 0.4795 0.4795 -0.7349
usemtl Material.001
s 1
f 1/1/1 2/2/1 3/3/1
f 4/4/1 2/5/1 5/6/1
f 5/6/2 6/7/2 7/8/2
f 8/9/1 9/10/1 10/11/1
f 11/12/1 12/13/1 13/14/1
f 1/15/3 11/12/3 14/16/3
f 8/17/4 11/12/4 15/18/4
f 15/18/1 13/14/1 9/10/1
f 16/19/2 7/8/2 17/20/2
f 10/21/1 5/22/1 16/19/1
f 9/10/1 4/23/1 10/24/1
f 7/8/4 8/17/4 17/20/4
f 7/8/5 1/15/5 14/16/5
f 17/25/1 10/11/1 16/26/1
f 13/14/1 3/27/1 4/28/1
f 18/29/1 3/3/1 12/13/1
f 1/1/6 6/30/6 2/2/6
f 4/4/1 3/31/1 2/5/1
f 5/6/1 2/32/1 6/7/1
f 8/9/7 15/18/7 9/10/7
f 11/12/8 18/29/8 12/13/8
f 1/15/4 18/29/4 11/12/4
f 8/17/9 14/16/9 11/12/9
f 15/18/8 11/12/8 13/14/8
f 16/19/1 5/6/1 7/8/1
f 10/21/1 4/33/1 5/22/1
f 9/10/1 13/34/1 4/23/1
f 7/8/10 14/16/10 8/17/10
f 7/8/4 6/7/4 1/15/4
f 17/25/7 8/9/7 10/11/7
f 13/14/1 12/35/1 3/27/1
f 18/29/6 1/1/6 3/3/6
o Cube.002
v -0.000000 0.776655 -0.043987
v -0.000000 0.000001 7.455337
v -0.776655 0.776655 -0.043987
v -0.000000 0.000001 7.455337
v -0.000000 0.000001 7.455337
v -0.000000 0.000001 7.455337
v 0.000000 -0.776655 -0.043987
v -0.000000 0.000001 7.455337
v 0.776655 -0.776655 -0.043987
v 0.776655 0.000000 -0.043987
v -0.000000 0.000001 7.455337
v 0.776655 0.776655 -0.043987
v -0.000000 0.000000 0.462750
v -0.000000 0.000001 7.455337
v -0.000000 0.000001 7.455337
v -0.776655 -0.000000 -0.043987
v -0.000000 0.000001 7.455337
v -0.776655 -0.776655 -0.043987
vt 0.822379 0.666223
vt 0.987826 0.995072
vt 0.987826 0.666223
vt 0.416212 0.006926
vt 0.416744 0.006926
vt 0.416744 0.007459
vt 0.416212 0.007459
vt 0.662254 0.332579
vt 0.660657 0.005328
vt 0.169106 0.668354
vt 0.330295 0.990810
vt 0.334553 0.668354
vt 0.500000 0.665690
vt 0.663318 0.990810
vt 0.661722 0.666223
vt 0.661722 0.494339
vt 0.500000 0.496470
vt 0.333489 0.495938
vt 0.420470 0.990810
vt 0.334021 0.007459
vt 0.500000 0.333644
vt 0.334553 0.007459
vt 0.334553 0.006926
vt 0.333489 0.007459
vt 0.332424 0.988679
vt 0.330295 0.990810
vt 0.334449 0.335242
vt 0.007916 0.666223
vt 0.089576 0.990810
vt 0.422598 0.990810
vt 0.420470 0.992941
vt 0.742849 0.990810
vt 0.330295 0.988679
vt 0.010045 0.988679
vt 0.422598 0.988679
vn 0.0000 -0.9947 -0.1030
vn 0.0000 0.0000 1.0000
vn 0.0000 0.9947 -0.1030
vn -0.9947 -0.0000 -0.1030
vn 0.4795 0.4795 0.7349
vn 0.4795 -0.4795 0.7349
vn 0.9947 0.0000 -0.1030
vn -0.4795 -0.4795 0.7349
vn -0.4795 0.4795 0.7349
usemtl Material.001
s 1
f 19/36/11 20/37/11 21/38/11
f 22/39/12 20/40/12 23/41/12
f 24/42/12 21/43/12 20/44/12
f 25/45/13 26/46/13 27/47/13
f 28/48/14 29/49/14 30/50/14
f 28/48/15 19/51/15 31/52/15
f 25/53/16 28/48/16 31/52/16
f 27/47/14 32/54/14 28/48/14
f 33/55/12 34/56/12 24/42/12
f 35/57/12 24/58/12 22/59/12
f 26/46/12 22/60/12 32/61/12
f 25/53/12 34/56/12 36/62/12
f 34/56/12 19/51/12 21/43/12
f 36/63/13 35/64/13 25/45/13
f 32/54/12 23/65/12 29/66/12
f 30/50/11 23/67/11 19/36/11
f 19/36/12 23/67/12 20/37/12
f 22/39/12 24/42/12 20/40/12
f 24/42/17 34/56/17 21/43/17
f 25/45/12 35/64/12 26/46/12
f 28/48/12 32/54/12 29/49/12
f 28/48/12 30/50/12 19/51/12
f 25/53/12 27/47/12 28/48/12
f 27/47/12 26/46/12 32/54/12
f 33/55/17 36/62/17 34/56/17
f 35/57/12 33/55/12 24/58/12
f 26/46/12 35/68/12 22/60/12
f 25/53/18 31/52/18 34/56/18
f 34/56/19 31/52/19 19/51/19
f 36/63/12 33/69/12 35/64/12
f 32/54/12 22/70/12 23/65/12
f 30/50/12 29/49/12 23/67/12
